# xmcd CD database file
#
# Track frame offsets:
#	150
#	11846
#	24025
#	35664
#	47851
#	59697
#	72448
#	84713
#	96958
#	110053
#	123668
#	135412
#	149255
#	161861
#	171643
#	182755
#
# Disc length: 2612 seconds
#
# Revision: 0
# Processed by: cddbd v1.5.2PL0 Copyright (c) Steve Scherf et al.
# Submitted via: CDex 1.95
#
DISCID=f20a3210
DTITLE=Rhythm Willie Hood - The Complete Rhythm Willie
DYEAR=2010
DGENRE=Blues
TTITLE0=You Can't Stop Me From Drinkin'
TTITLE1=I Want Some Seafood
TTITLE2=Rollin' Chair
TTITLE3=Love Bug
TTITLE4=Confidence Man
TTITLE5=Little Brown Skin Girl
TTITLE6=Lock and Key Blues
TTITLE7=Treated Like A Dog
TTITLE8=My Drivin' Wheel
TTITLE9=New Block and Tackle Blues
TTITLE10=Breathtakin' Blues
TTITLE11=Bedroom Stomp
TTITLE12=Boarding House Blues
TTITLE13=Willie's Boogie
TTITLE14=Wailin' Willie
TTITLE15=I've Got Rhythm
EXTD=YEAR: 2010
EXTT0=
EXTT1=
EXTT2=
EXTT3=
EXTT4=
EXTT5=
EXTT6=
EXTT7=
EXTT8=
EXTT9=
EXTT10=
EXTT11=
EXTT12=
EXTT13=
EXTT14=
EXTT15=
PLAYORDER=
